<svg xmlns="http://www.w3.org/2000/svg" x="0px" y="0px" width="100" height="100" viewBox="0,0,256,256">
<g fill="#ffffff" fill-rule="nonzero" stroke="none" stroke-width="1" stroke-linecap="butt" stroke-linejoin="miter" stroke-miterlimit="10" stroke-dasharray="" stroke-dashoffset="0" font-family="none" font-weight="none" font-size="none" text-anchor="none" style="mix-blend-mode: normal"><g transform="scale(8,8)"><path d="M4,4v24h7v-24zM21.5,4c-4.687,0 -8.5,3.813 -8.5,8.5c0,4.687 3.813,8.5 8.5,8.5c4.687,0 8.5,-3.813 8.5,-8.5c0,-4.687 -3.813,-8.5 -8.5,-8.5zM6,6h3v20h-3zM21.5,6c3.584,0 6.5,2.916 6.5,6.5c0,3.584 -2.916,6.5 -6.5,6.5c-3.584,0 -6.5,-2.916 -6.5,-6.5c0,-3.584 2.916,-6.5 6.5,-6.5z"></path></g></g>
</svg>